<?xml version="1.0" encoding="UTF-8"?>
<!DOCTYPE svg PUBLIC "-//W3C//DTD SVG 1.1//EN" "http://www.w3.org/Graphics/SVG/1.1/DTD/svg11.dtd">
<!-- Creator: CorelDRAW -->
<svg xmlns="http://www.w3.org/2000/svg" xml:space="preserve" width="30px" height="30px" style="shape-rendering:geometricPrecision; text-rendering:geometricPrecision; image-rendering:optimizeQuality; fill-rule:evenodd; clip-rule:evenodd"
viewBox="0 0 30 30"
 xmlns:xlink="http://www.w3.org/1999/xlink">
 <defs>
  <style type="text/css">
   <![CDATA[
    .fil0 {fill:#EB2889}
   ]]>
  </style>
 </defs>
 <g id="Capa_x0020_1">
  <metadata id="CorelCorpID_0Corel-Layer"/>
  <g id="_120835288">
   <path id="_120683976" class="fil0" d="M15.0071 26.0953c-0.0153543,0.0106299 -3.0685,-1.60157 -6.69094,-6.03543 -3.39094,-4.15157 -2.50157,-14.3315 -2.50157,-14.3315 5.81457,1.22244 8.76496,-1.40787 9.16299,-1.79646 0,0 0.00826772,-0.0389764 0.023622,-0.0224409 0.0153543,-0.0165354 0.023622,0.0224409 0.023622,0.0224409 0.398031,0.388583 3.35079,3.01535 9.16535,1.78937 0,0 0.869291,10.1587 -2.49213,14.3339 -3.59173,4.4622 -6.67559,6.05079 -6.69094,6.04016zm8.14016 -4.66063c4.08661,-5.17559 3.02953,-17.7685 3.02953,-17.7685 -7.07126,1.52126 -10.663,-1.73622 -11.1461,-2.21693 0,-0.0011811 -0.0106299,-0.0484252 -0.0295276,-0.0295276 -0.0188976,-0.0188976 -0.0283465,0.0295276 -0.0283465,0.0295276 -0.483071,0.480709 -4.07244,3.74055 -11.1449,2.2252 0,0 -1.08071,12.6201 3.0437,17.7661 4.40551,5.49685 8.12126,7.15866 8.14016,7.14449 0.0188976,0.0141732 3.76654,-1.61811 8.13543,-7.15039z"/>
   <path id="_120684072" class="fil0" d="M21.1512 12.3839c-1.38425,-0.00472441 -2.7685,-0.00944882 -4.15394,-0.0141732 -0.129921,0 -0.258661,-0.0011811 -0.388583,-0.0011811 0.00354331,-1.00866 0.00708661,-2.01732 0.00944882,-3.02598 0.0023622,-0.505512 0.00354331,-1.01102 0.00590551,-1.51772 0,-0.168898 -0.141732,-0.311811 -0.31063,-0.312992 -0.861024,-0.0023622 -1.72205,-0.00590551 -2.58189,-0.00826772 -0.168898,-0.0011811 -0.312992,0.141732 -0.312992,0.31063 -0.00472441,1.38425 -0.00944882,2.76969 -0.0141732,4.15394 0,0.129921 -0.0011811,0.259843 -0.0011811,0.389764 -1.00866,-0.00472441 -2.01732,-0.00708661 -3.02598,-0.0106299 -0.505512,-0.0023622 -1.0122,-0.00354331 -1.51772,-0.00590551 -0.168898,0 -0.311811,0.142913 -0.312992,0.311811 -0.0023622,0.859843 -0.00590551,1.72087 -0.00826772,2.58071 -0.0011811,0.0956693 0.034252,0.168898 0.0885827,0.219685 0.0496063,0.0555118 0.124016,0.0933071 0.222047,0.0933071 1.38425,0.00472441 2.7685,0.0106299 4.15394,0.0141732 0.129921,0.0011811 0.259843,0.0011811 0.388583,0.0023622 -0.0023622,1.00748 -0.00590551,2.01614 -0.00944882,3.0248 -0.0023622,0.505512 -0.00354331,1.0122 -0.00590551,1.51772 0,0.168898 0.141732,0.312992 0.31063,0.312992 0.861024,0.00354331 1.72205,0.00590551 2.58189,0.00944882 0.0956693,0 0.168898,-0.0354331 0.218504,-0.0897638 0.0566929,-0.0496063 0.0944882,-0.122835 0.0944882,-0.220866 0.00472441,-1.38543 0.00944882,-2.76969 0.0141732,-4.15512 0.0011811,-0.12874 0.0011811,-0.258661 0.0011811,-0.388583 1.00866,0.00354331 2.01732,0.00708661 3.02598,0.0106299 0.505512,0.0011811 1.0122,0.00354331 1.51772,0.00472441 0.168898,0.0011811 0.312992,-0.141732 0.312992,-0.31063 0.0023622,-0.861024 0.00590551,-1.72087 0.00826772,-2.58189 0.0011811,-0.168898 -0.141732,-0.312992 -0.31063,-0.312992z"/>
  </g>
 </g>
</svg>
